<?xml version="1.0" encoding="UTF-8"?>
<svg width="70px" height="70px" version="1.1" viewBox="0 0 700 700" xmlns="http://www.w3.org/2000/svg" xmlns:xlink="http://www.w3.org/1999/xlink">
 <defs>
  <symbol id="u" overflow="visible">
   <path d="m18.766-1.125c-0.96875 0.5-1.9805 0.875-3.0312 1.125-1.043 0.25781-2.1367 0.39062-3.2812 0.39062-3.3984 0-6.0898-0.94531-8.0781-2.8438-1.9922-1.9062-2.9844-4.4844-2.9844-7.7344 0-3.2578 0.99219-5.8359 2.9844-7.7344 1.9883-1.9062 4.6797-2.8594 8.0781-2.8594 1.1445 0 2.2383 0.13281 3.2812 0.39062 1.0508 0.25 2.0625 0.625 3.0312 1.125v4.2188c-0.98047-0.65625-1.9453-1.1406-2.8906-1.4531-0.94922-0.3125-1.9492-0.46875-3-0.46875-1.875 0-3.3516 0.60547-4.4219 1.8125-1.0742 1.1992-1.6094 2.8555-1.6094 4.9688 0 2.1055 0.53516 3.7617 1.6094 4.9688 1.0703 1.1992 2.5469 1.7969 4.4219 1.7969 1.0508 0 2.0508-0.14844 3-0.45312 0.94531-0.3125 1.9102-0.80078 2.8906-1.4688z"/>
  </symbol>
  <symbol id="d" overflow="visible">
   <path d="m13.734-11.141c-0.4375-0.19531-0.87109-0.34375-1.2969-0.4375-0.41797-0.10156-0.83984-0.15625-1.2656-0.15625-1.2617 0-2.2305 0.40625-2.9062 1.2188-0.67969 0.80469-1.0156 1.9531-1.0156 3.4531v7.0625h-4.8906v-15.312h4.8906v2.5156c0.625-1 1.3438-1.7266 2.1562-2.1875 0.82031-0.46875 1.8008-0.70312 2.9375-0.70312 0.16406 0 0.34375 0.011719 0.53125 0.03125 0.19531 0.011719 0.47656 0.039062 0.84375 0.078125z"/>
  </symbol>
  <symbol id="a" overflow="visible">
   <path d="m17.641-7.7031v1.4062h-11.453c0.125 1.1484 0.53906 2.0078 1.25 2.5781 0.70703 0.57422 1.7031 0.85938 2.9844 0.85938 1.0312 0 2.082-0.14844 3.1562-0.45312 1.082-0.3125 2.1914-0.77344 3.3281-1.3906v3.7656c-1.1562 0.4375-2.3125 0.76562-3.4688 0.98438-1.1562 0.22656-2.3125 0.34375-3.4688 0.34375-2.7734 0-4.9297-0.70312-6.4688-2.1094-1.5312-1.4062-2.2969-3.3789-2.2969-5.9219 0-2.5 0.75391-4.4609 2.2656-5.8906 1.5078-1.4375 3.582-2.1562 6.2188-2.1562 2.4062 0 4.332 0.73047 5.7812 2.1875 1.4453 1.4492 2.1719 3.3828 2.1719 5.7969zm-5.0312-1.625c0-0.92578-0.27344-1.6719-0.8125-2.2344-0.54297-0.57031-1.25-0.85938-2.125-0.85938-0.94922 0-1.7188 0.26562-2.3125 0.79688s-0.96484 1.2969-1.1094 2.2969z"/>
  </symbol>
  <symbol id="j" overflow="visible">
   <path d="m9.2188-6.8906c-1.0234 0-1.793 0.17188-2.3125 0.51562-0.51172 0.34375-0.76562 0.85547-0.76562 1.5312 0 0.625 0.20703 1.1172 0.625 1.4688 0.41406 0.34375 0.98828 0.51562 1.7188 0.51562 0.92578 0 1.7031-0.32812 2.3281-0.98438 0.63281-0.66406 0.95312-1.4922 0.95312-2.4844v-0.5625zm7.4688-1.8438v8.7344h-4.9219v-2.2656c-0.65625 0.92969-1.3984 1.6055-2.2188 2.0312-0.82422 0.41406-1.8242 0.625-3 0.625-1.5859 0-2.8711-0.45703-3.8594-1.375-0.99219-0.92578-1.4844-2.1289-1.4844-3.6094 0-1.7891 0.61328-3.1016 1.8438-3.9375 1.2383-0.84375 3.1797-1.2656 5.8281-1.2656h2.8906v-0.39062c0-0.76953-0.30859-1.332-0.92188-1.6875-0.61719-0.36328-1.5703-0.54688-2.8594-0.54688-1.0547 0-2.0312 0.10547-2.9375 0.3125-0.89844 0.21094-1.7305 0.52344-2.5 0.9375v-3.7344c1.0391-0.25 2.0859-0.44141 3.1406-0.57812 1.0625-0.13281 2.125-0.20312 3.1875-0.20312 2.7578 0 4.75 0.54688 5.9688 1.6406 1.2266 1.0859 1.8438 2.8555 1.8438 5.3125z"/>
  </symbol>
  <symbol id="c" overflow="visible">
   <path d="m7.7031-19.656v4.3438h5.0469v3.5h-5.0469v6.5c0 0.71094 0.14062 1.1875 0.42188 1.4375s0.83594 0.375 1.6719 0.375h2.5156v3.5h-4.1875c-1.9375 0-3.3125-0.39844-4.125-1.2031-0.80469-0.8125-1.2031-2.1797-1.2031-4.1094v-6.5h-2.4219v-3.5h2.4219v-4.3438z"/>
  </symbol>
  <symbol id="i" overflow="visible">
   <path d="m12.766-13.078v-8.2031h4.9219v21.281h-4.9219v-2.2188c-0.66797 0.90625-1.4062 1.5703-2.2188 1.9844s-1.7578 0.625-2.8281 0.625c-1.8867 0-3.4336-0.75-4.6406-2.25-1.2109-1.5-1.8125-3.4258-1.8125-5.7812 0-2.3633 0.60156-4.2969 1.8125-5.7969 1.207-1.5 2.7539-2.25 4.6406-2.25 1.0625 0 2 0.21484 2.8125 0.64062 0.82031 0.42969 1.5664 1.0859 2.2344 1.9688zm-3.2188 9.9219c1.0391 0 1.8359-0.37891 2.3906-1.1406 0.55078-0.76953 0.82812-1.8828 0.82812-3.3438 0-1.457-0.27734-2.5664-0.82812-3.3281-0.55469-0.76953-1.3516-1.1562-2.3906-1.1562-1.043 0-1.8398 0.38672-2.3906 1.1562-0.55469 0.76172-0.82812 1.8711-0.82812 3.3281 0 1.4609 0.27344 2.5742 0.82812 3.3438 0.55078 0.76172 1.3477 1.1406 2.3906 1.1406z"/>
  </symbol>
  <symbol id="h" overflow="visible">
   <path d="m10.5-3.1562c1.0508 0 1.8516-0.37891 2.4062-1.1406 0.55078-0.76953 0.82812-1.8828 0.82812-3.3438 0-1.457-0.27734-2.5664-0.82812-3.3281-0.55469-0.76953-1.3555-1.1562-2.4062-1.1562-1.0547 0-1.8594 0.38672-2.4219 1.1562-0.55469 0.77344-0.82812 1.8828-0.82812 3.3281 0 1.4492 0.27344 2.5586 0.82812 3.3281 0.5625 0.77344 1.3672 1.1562 2.4219 1.1562zm-3.25-9.9219c0.67578-0.88281 1.4219-1.5391 2.2344-1.9688 0.82031-0.42578 1.7656-0.64062 2.8281-0.64062 1.8945 0 3.4453 0.75 4.6562 2.25 1.207 1.5 1.8125 3.4336 1.8125 5.7969 0 2.3555-0.60547 4.2812-1.8125 5.7812-1.2109 1.5-2.7617 2.25-4.6562 2.25-1.0625 0-2.0078-0.21094-2.8281-0.625-0.8125-0.42578-1.5586-1.0859-2.2344-1.9844v2.2188h-4.8906v-21.281h4.8906z"/>
  </symbol>
  <symbol id="g" overflow="visible">
   <path d="m0.34375-15.312h4.8906l4.125 10.391 3.5-10.391h4.8906l-6.4375 16.766c-0.64844 1.6953-1.4023 2.8828-2.2656 3.5625-0.86719 0.6875-2 1.0312-3.4062 1.0312h-2.8438v-3.2188h1.5312c0.83203 0 1.4375-0.13672 1.8125-0.40625 0.38281-0.26172 0.67969-0.73047 0.89062-1.4062l0.14062-0.42188z"/>
  </symbol>
  <symbol id="f" overflow="visible">
   <path d="m14.953-3.7188h-8.2188l-1.3125 3.7188h-5.2812l7.5625-20.406h6.2656l7.5625 20.406h-5.2812zm-6.9062-3.7812h5.5781l-2.7812-8.125z"/>
  </symbol>
  <symbol id="t" overflow="visible">
   <path d="m14.312-14.828v3.7188c-1.043-0.4375-2.0547-0.76562-3.0312-0.98438-0.98047-0.21875-1.9023-0.32812-2.7656-0.32812-0.92969 0-1.6211 0.11719-2.0781 0.34375-0.44922 0.23047-0.67188 0.58984-0.67188 1.0781 0 0.38672 0.17188 0.68359 0.51562 0.89062 0.34375 0.21094 0.95703 0.36719 1.8438 0.46875l0.85938 0.125c2.5078 0.32422 4.1953 0.85156 5.0625 1.5781 0.86328 0.73047 1.2969 1.8711 1.2969 3.4219 0 1.6367-0.60547 2.8672-1.8125 3.6875-1.1992 0.8125-2.9922 1.2188-5.375 1.2188-1.0234 0-2.0742-0.078125-3.1562-0.23438-1.0742-0.15625-2.1797-0.39453-3.3125-0.71875v-3.7188c0.96875 0.48047 1.9609 0.83984 2.9844 1.0781 1.0312 0.23047 2.0781 0.34375 3.1406 0.34375 0.95703 0 1.6758-0.12891 2.1562-0.39062 0.47656-0.26953 0.71875-0.66406 0.71875-1.1875 0-0.4375-0.16797-0.75781-0.5-0.96875-0.33594-0.21875-0.99609-0.38281-1.9844-0.5l-0.85938-0.10938c-2.1797-0.26953-3.7031-0.77344-4.5781-1.5156-0.875-0.73828-1.3125-1.8594-1.3125-3.3594 0-1.625 0.55078-2.8281 1.6562-3.6094 1.1133-0.78906 2.8203-1.1875 5.125-1.1875 0.89453 0 1.8359 0.074219 2.8281 0.21875 1 0.13672 2.082 0.35156 3.25 0.64062z"/>
  </symbol>
  <symbol id="e" overflow="visible">
   <path d="m17.75-9.3281v9.3281h-4.9219v-7.1094c0-1.3438-0.03125-2.2656-0.09375-2.7656s-0.16797-0.86719-0.3125-1.1094c-0.1875-0.3125-0.44922-0.55469-0.78125-0.73438-0.32422-0.17578-0.69531-0.26562-1.1094-0.26562-1.0234 0-1.8242 0.39844-2.4062 1.1875-0.58594 0.78125-0.875 1.8711-0.875 3.2656v7.5312h-4.8906v-21.281h4.8906v8.2031c0.73828-0.88281 1.5195-1.5391 2.3438-1.9688 0.83203-0.42578 1.75-0.64062 2.75-0.64062 1.7695 0 3.1133 0.54688 4.0312 1.6406 0.91406 1.0859 1.375 2.6562 1.375 4.7188z"/>
  </symbol>
  <symbol id="b" overflow="visible">
   <path d="m9.6406-12.188c-1.0859 0-1.9141 0.39062-2.4844 1.1719-0.57422 0.78125-0.85938 1.9062-0.85938 3.375s0.28516 2.5938 0.85938 3.375c0.57031 0.77344 1.3984 1.1562 2.4844 1.1562 1.0625 0 1.875-0.38281 2.4375-1.1562 0.57031-0.78125 0.85938-1.9062 0.85938-3.375s-0.28906-2.5938-0.85938-3.375c-0.5625-0.78125-1.375-1.1719-2.4375-1.1719zm0-3.5c2.6328 0 4.6914 0.71484 6.1719 2.1406 1.4766 1.418 2.2188 3.3867 2.2188 5.9062 0 2.5117-0.74219 4.4805-2.2188 5.9062-1.4805 1.418-3.5391 2.125-6.1719 2.125-2.6484 0-4.7148-0.70703-6.2031-2.125-1.4922-1.4258-2.2344-3.3945-2.2344-5.9062 0-2.5195 0.74219-4.4883 2.2344-5.9062 1.4883-1.4258 3.5547-2.1406 6.2031-2.1406z"/>
  </symbol>
  <symbol id="s" overflow="visible">
   <path d="m2.3594-21.281h4.8906v11.594l5.625-5.625h5.6875l-7.4688 7.0312 8.0625 8.2812h-5.9375l-5.9688-6.3906v6.3906h-4.8906z"/>
  </symbol>
  <symbol id="r" overflow="visible">
   <path d="m12.422-21.281v3.2188h-2.7031c-0.6875 0-1.1719 0.125-1.4531 0.375-0.27344 0.25-0.40625 0.6875-0.40625 1.3125v1.0625h4.1875v3.5h-4.1875v11.812h-4.8906v-11.812h-2.4375v-3.5h2.4375v-1.0625c0-1.6641 0.46094-2.8984 1.3906-3.7031 0.92578-0.80078 2.3672-1.2031 4.3281-1.2031z"/>
  </symbol>
  <symbol id="q" overflow="visible">
   <path d="m16.547-12.766c0.61328-0.94531 1.3477-1.6719 2.2031-2.1719 0.85156-0.5 1.7891-0.75 2.8125-0.75 1.7578 0 3.0977 0.54688 4.0156 1.6406 0.92578 1.0859 1.3906 2.6562 1.3906 4.7188v9.3281h-4.9219v-7.9844-0.35938c0.007813-0.13281 0.015625-0.32031 0.015625-0.5625 0-1.082-0.16406-1.8633-0.48438-2.3438-0.3125-0.48828-0.82422-0.73438-1.5312-0.73438-0.92969 0-1.6484 0.38672-2.1562 1.1562-0.51172 0.76172-0.77344 1.8672-0.78125 3.3125v7.5156h-4.9219v-7.9844c0-1.6953-0.14844-2.7852-0.4375-3.2656-0.29297-0.48828-0.8125-0.73438-1.5625-0.73438-0.9375 0-1.6641 0.38672-2.1719 1.1562-0.51172 0.76172-0.76562 1.8594-0.76562 3.2969v7.5312h-4.9219v-15.312h4.9219v2.2344c0.60156-0.86328 1.2891-1.5156 2.0625-1.9531 0.78125-0.4375 1.6406-0.65625 2.5781-0.65625 1.0625 0 2 0.25781 2.8125 0.76562 0.8125 0.51172 1.4258 1.2305 1.8438 2.1562z"/>
  </symbol>
  <symbol id="p" overflow="visible">
   <path d="m2.5781-20.406h5.875l7.4219 14v-14h4.9844v20.406h-5.875l-7.4219-14v14h-4.9844z"/>
  </symbol>
  <symbol id="o" overflow="visible">
   <path d="m2.1875-5.9688v-9.3438h4.9219v1.5312c0 0.83594-0.007813 1.875-0.015625 3.125-0.011719 1.25-0.015625 2.0859-0.015625 2.5 0 1.2422 0.03125 2.1328 0.09375 2.6719 0.070313 0.54297 0.17969 0.93359 0.32812 1.1719 0.20703 0.32422 0.47266 0.57422 0.79688 0.75 0.32031 0.16797 0.69141 0.25 1.1094 0.25 1.0195 0 1.8203-0.39062 2.4062-1.1719 0.58203-0.78125 0.875-1.8672 0.875-3.2656v-7.5625h4.8906v15.312h-4.8906v-2.2188c-0.74219 0.89844-1.5234 1.5586-2.3438 1.9844-0.82422 0.41406-1.7344 0.625-2.7344 0.625-1.7617 0-3.1055-0.53906-4.0312-1.625-0.92969-1.082-1.3906-2.6602-1.3906-4.7344z"/>
  </symbol>
  <symbol id="n" overflow="visible">
   <path d="m17.75-9.3281v9.3281h-4.9219v-7.1406c0-1.3203-0.03125-2.2344-0.09375-2.7344s-0.16797-0.86719-0.3125-1.1094c-0.1875-0.3125-0.44922-0.55469-0.78125-0.73438-0.32422-0.17578-0.69531-0.26562-1.1094-0.26562-1.0234 0-1.8242 0.39844-2.4062 1.1875-0.58594 0.78125-0.875 1.8711-0.875 3.2656v7.5312h-4.8906v-15.312h4.8906v2.2344c0.73828-0.88281 1.5195-1.5391 2.3438-1.9688 0.83203-0.42578 1.75-0.64062 2.75-0.64062 1.7695 0 3.1133 0.54688 4.0312 1.6406 0.91406 1.0859 1.375 2.6562 1.375 4.7188z"/>
  </symbol>
  <symbol id="m" overflow="visible">
   <path d="m2.5781-20.406h8.7344c2.5938 0 4.582 0.57812 5.9688 1.7344 1.3945 1.1484 2.0938 2.7891 2.0938 4.9219 0 2.1367-0.69922 3.7812-2.0938 4.9375-1.3867 1.1562-3.375 1.7344-5.9688 1.7344h-3.4844v7.0781h-5.25zm5.25 3.8125v5.7031h2.9219c1.0195 0 1.8047-0.25 2.3594-0.75 0.5625-0.5 0.84375-1.2031 0.84375-2.1094 0-0.91406-0.28125-1.6172-0.84375-2.1094-0.55469-0.48828-1.3398-0.73438-2.3594-0.73438z"/>
  </symbol>
  <symbol id="l" overflow="visible">
   <path d="m2.3594-15.312h4.8906v15.031c0 2.0508-0.49609 3.6172-1.4844 4.7031-0.98047 1.082-2.4062 1.625-4.2812 1.625h-2.4219v-3.2188h0.85938c0.92578 0 1.5625-0.21094 1.9062-0.625 0.35156-0.41797 0.53125-1.2461 0.53125-2.4844zm0-5.9688h4.8906v4h-4.8906z"/>
  </symbol>
  <symbol id="k" overflow="visible">
   <path d="m14.719-14.828v3.9844c-0.65625-0.45703-1.3242-0.79688-2-1.0156-0.66797-0.21875-1.3594-0.32812-2.0781-0.32812-1.3672 0-2.4336 0.40234-3.2031 1.2031-0.76172 0.79297-1.1406 1.9062-1.1406 3.3438 0 1.4297 0.37891 2.543 1.1406 3.3438 0.76953 0.79297 1.8359 1.1875 3.2031 1.1875 0.75781 0 1.4844-0.10938 2.1719-0.32812 0.6875-0.22656 1.3203-0.56641 1.9062-1.0156v4c-0.76172 0.28125-1.5391 0.48828-2.3281 0.625-0.78125 0.14453-1.5742 0.21875-2.375 0.21875-2.7617 0-4.9219-0.70703-6.4844-2.125-1.5547-1.4141-2.3281-3.3828-2.3281-5.9062 0-2.5312 0.77344-4.5039 2.3281-5.9219 1.5625-1.4141 3.7227-2.125 6.4844-2.125 0.80078 0 1.5938 0.074219 2.375 0.21875 0.78125 0.13672 1.5547 0.35156 2.3281 0.64062z"/>
  </symbol>
 </defs>
 <g>
  <path fill= "#fff" d="m288.95 481.72-1.1719 5.4766 7.8789 1.6836-1.168-7.9688zm-81.41-134.8 3.5625-4.3203-8.7266 6.4922zm-30.219 182.37-5.5508-0.75781-0.87109 6.3594h6.4219zm352.8 0v5.6016h6.6953l-1.1836-6.5898zm-112.51-61.324-5.1367 2.2344 1.5547 3.5703 3.8867-0.21094zm28.922-303.47 5.5977 0.14844-10.488-2.8789zm26.809 149.27-5.2031 2.0664 4.418 11.137 5.7109-10.535zm6.8867-155.75 5.0508-2.4102-10.352 4.2227zm86.402 103.48-3.2461 4.5664 8.1211 5.7695 0.71094-9.9375zm-76.828-125.02 3.1211-4.6484-6.5352 9.0898zm66.328 20.098 0.28125-5.5938h-0.023438zm0 0-0.27734 5.5938h0.050781l0.054688 0.003906zm0.003906 0 0.25781-5.5938-0.042968-0.003907h-0.039063zm12.488 0.63672-0.33594 5.5898 8.3594 0.50391-2.7305-7.918zm-108.23-46.891-5.5938-0.30859-0.41406 7.4766 7.2891-1.7148zm-127.54-74.375-2.168-5.1641-9.5664 4.0156 8.6094 5.793zm98.926 77.473-2.5039 5.0117 6.3281-9.0977zm-185.42 28.293-5.0664-2.3867-3.0117 6.3945 6.9141 1.4688zm157.99-8.8906 2.0703 5.2031-3.375-10.648zm-95.191 110.4 5.4414 1.3242zm-0.44531 1.832-5.4414-1.3242-3.9922 16.402 13.004-10.762zm91.918-71.711 3.3281 4.5039 0.13281-0.097656 0.125-0.10547zm0 0-3.3281-4.5039-0.13281 0.097656-0.125 0.10547zm26.105-19.367 4.2969 3.5898-7.6445-8.0781zm-95.488 318.9-5.2812 1.8633 10.883-1.9531zm-113.47-137.83 1.4844-5.4023-4.1797 10.309zm21.934 5.9688 1.4609-5.4062zm78.113 23.312-1.7539 5.3164 16.004 5.2852-9.6602-13.812zm-0.75391-1.082-4.5898 3.2109zm-90.055-47.668-0.76953-5.5469 0.73437 11.148zm66.871-24.277 3.3203 4.5078 0.039063-0.027343zm0 0-3.3203-4.5117-0.042969 0.03125zm15.707-11.059 3.0703 4.6797 5.9141-3.8789-5.1328-4.8672zm-105.38 29.68-5.0469-2.4258 8.9609 6.4297zm44.875-75.602 4.5977 3.1953 5.9375-8.5352-10.395-0.25781zm-64.324 80.863 0.78906 5.543 7.4062-1.0508-3.0938-6.8086zm-58.691 58.055-5.5938 0.21484 0.32031 8.3789 7.6172-3.5078zm7.9766-3.5898 2.2734 5.1172h0.003907zm0.003906 0 2.2773 5.1172 0.039063-0.019531zm0.003907-0.003906-2.2734-5.1172-0.042969 0.019531zm38.16-29.953 4.7891 2.9023-9.3828-6.1016zm-18.414 100.94-5.0625 2.3984 4.2617 8.9961 5.4766-8.3125zm30.117-89.348 5.5977-0.22656-11.18-0.19141zm43.965 99.656-3.6172 4.2773 9.1328 7.7227 0.082031-11.957zm66.602 29.98c-4.2812-29.293-10.262-51.844-22.824-73.211-12.523-21.305-31.34-41.016-60.562-65.098l-7.125 8.6445c28.82 23.75 46.48 42.477 58.031 62.129 11.516 19.586 17.215 40.52 21.398 69.152zm-34.32 3.582c10.559 0 19.699 1.0078 27.609 2.7031l2.3438-10.953c-8.75-1.8711-18.684-2.9492-29.953-2.9492zm-82.848 44.801c5.5469 0.76172 5.5469 0.76562 5.543 0.76953v0.003906 0.011719 0.003906s0-0.015625 0.003906-0.039062c0.007813-0.050781 0.027344-0.14844 0.050781-0.28516 0.050782-0.27344 0.14063-0.71484 0.28516-1.2969 0.28516-1.1719 0.78125-2.9062 1.6016-5.0156 1.6406-4.2227 4.5547-9.918 9.6406-15.629 10.016-11.25 29.125-23.324 65.723-23.324v-11.199c-39.348 0-61.664 13.125-74.086 27.078-6.1367 6.8867-9.6914 13.797-11.719 19.023-1.0156 2.6133-1.6523 4.8164-2.0391 6.4023-0.19531 0.79297-0.32812 1.4375-0.41406 1.9023-0.042969 0.23047-0.074219 0.41797-0.097656 0.55859-0.011719 0.070313-0.019532 0.12891-0.027344 0.17578-0.003906 0.023437-0.007812 0.042968-0.007812 0.058594-0.003907 0.007812-0.003907 0.015624-0.003907 0.023437 0 0.003906 0 0.007813-0.003906 0.007813 0 0.007812 0 0.011718 5.5508 0.76953zm151.2-5.5977h-151.2v11.199h151.2zm0 11.199h16.801v-11.199h-16.801zm16.801 0h184.8v-11.199h-184.8zm184.8-5.6016c5.5117-0.98828 5.5117-0.99219 5.5117-0.99609v-0.007813c-0.003906-0.007812-0.003906-0.015624-0.007812-0.027343 0-0.015625-0.003907-0.039063-0.011719-0.0625-0.007813-0.050781-0.019531-0.11719-0.039063-0.19531-0.03125-0.16016-0.078125-0.37891-0.14062-0.64844-0.12109-0.54297-0.30859-1.3008-0.57812-2.2422-0.53516-1.8828-1.3984-4.5156-2.7305-7.6367-2.6602-6.25-7.2109-14.52-14.793-22.773-15.316-16.664-42.414-32.609-89.391-32.609v11.199c44.156 0 68.152 14.855 81.145 28.992 6.5664 7.1445 10.477 14.273 12.734 19.578 1.1289 2.6484 1.8398 4.832 2.2617 6.3203 0.21484 0.74219 0.35156 1.3047 0.43359 1.668 0.042969 0.17969 0.070313 0.30859 0.085938 0.37891 0.003906 0.039062 0.011719 0.0625 0.011719 0.070312v0-0.007812-0.003907c-0.003907-0.003906-0.003907-0.007812 5.5078-0.99609zm-102.18-67.199c-3.668 0-7.2148 0.097656-10.641 0.28516l0.61328 11.184c3.2148-0.17578 6.5547-0.26953 10.027-0.26953zm13.699-300.32c-56.652 101.42-74.891 203.38-29.168 308.43l10.27-4.4688c-43.922-100.92-26.836-199.12 28.676-298.5zm36.906 149.94c-12.09-30.465-19.051-51.84-22.832-73.191-3.7773-21.348-4.4258-42.926-3.5859-73.867l-11.195-0.30078c-0.84766 31.184-0.22266 53.652 3.7539 76.121 3.9766 22.461 11.262 44.656 23.449 75.367zm-3.6211-151.88c11.676 34.066 16.887 58.941 15.871 81.621-1.0117 22.57-8.2148 43.508-22.379 69.648l9.8477 5.3359c14.609-26.965 22.605-49.602 23.719-74.484 1.1094-24.77-4.6289-51.219-16.461-85.75zm94.945 97.098c-20.871-14.824-35.879-27.441-48.703-42.594-12.824-15.156-23.66-33.082-35.891-58.727l-10.105 4.8203c12.457 26.121 23.77 44.98 37.445 61.141 13.68 16.164 29.531 29.402 50.766 44.492zm-83.484-116.01c30.945 23.766 50.344 42.004 61.676 60.141 11.133 17.82 14.699 35.918 12.98 60.039l11.172 0.79688c1.8438-25.91-1.9922-46.5-14.656-66.77-12.465-19.957-33.266-39.215-64.348-63.09zm70 10.062c-12.688-0.58594-21.871-1.0312-31.25-3.4531-9.2539-2.3906-18.969-6.793-32.215-15.699l-6.2461 9.2969c13.965 9.3867 24.84 14.453 35.66 17.246 10.699 2.7656 21.074 3.2227 33.535 3.7969zm0.023438 0-0.55859 11.188zm-0.10156-0.003907h-0.003906l-0.34766 11.195zm12.648 0.64453c-4.5312-0.26953-8.7031-0.46484-12.566-0.64062l-0.51562 11.188c3.8711 0.17969 7.9688 0.36719 12.41 0.63281zm-107.28-35.848c28.906-6.8008 50.43-6.7461 66.469 0.039062 15.746 6.6602 27.266 20.281 35.184 43.227l10.586-3.6523c-8.5859-24.887-21.84-41.613-41.406-49.891-19.281-8.1562-43.617-7.6289-73.395-0.625zm-126.66-74.664c26.453-11.102 57.555-9.6172 81.441 2.6211 23.656 12.121 40.094 34.652 38.34 66.281l11.184 0.62109c2.0273-36.605-17.34-62.996-44.418-76.871-26.848-13.758-61.406-15.348-90.883-2.9805zm100.58 68.223c-33.934-31.77-56.211-48.812-99.621-78.031l-6.2539 9.2891c43.047 28.977 64.824 45.652 98.223 76.918zm-184.18 34.762c10.77-22.875 29.949-41.609 58.637-48.652 28.828-7.0781 68.09-2.5469 119.21 22.988l5.0039-10.02c-52.559-26.254-94.617-31.766-126.88-23.844-32.41 7.9531-54.098 29.258-66.102 54.758zm151.62-16.719c-74.113 17.707-107.34 19.086-155.52 8.8555l-2.3281 10.957c50.375 10.695 85.395 9.0117 160.46-8.9219zm-88.445 117.17c6.2695-25.766 10.945-44.668 22.953-61.059 11.906-16.242 31.496-30.57 68.867-45.461l-4.1445-10.406c-38.293 15.258-60.086 30.594-73.754 49.25-13.566 18.508-18.648 39.73-24.805 65.027zm-0.44531 1.832 0.44531-1.832-10.883-2.6484-0.44531 1.832zm83.148-77.539c-30.664 22.676-49.676 36.734-92.16 71.902l7.1406 8.6289c42.27-34.988 61.098-48.91 91.676-71.523zm-0.25781 0.20312 7.1719 8.6016zm26.344-19.555c-9.8242 7.3281-18.328 13.613-26.086 19.352l6.6562 9.0078c7.7617-5.7383 16.281-12.039 26.125-19.379zm-86.539 323.3c-1.7539-107.79 15.688-221.25 94.184-315.22l-8.5938-7.1797c-80.988 96.957-98.559 213.61-96.789 322.58zm-121.77-132.84c34.445 18.93 57.121 38.59 73.66 60.348 16.574 21.805 27.207 46.008 37.223 74.441l10.562-3.7227c-10.156-28.84-21.254-54.32-38.871-77.496-17.652-23.223-41.621-43.844-77.18-63.387zm26.09-4.3438c-6.5156-1.7617-13.648-3.6953-21.91-5.9648l-2.9688 10.801c8.2852 2.2773 15.441 4.2109 21.953 5.9766zm78.41 23.402c-36.66-12.105-52.652-16.434-78.41-23.402l-2.9258 10.812c25.656 6.9414 41.434 11.207 77.824 23.223zm-7.1016 7.4453 0.75781 1.082 9.1758-6.4219-0.75391-1.0781zm-85.5-45.277c27.996 0.1875 44.039 4.5156 55.539 11.82 11.645 7.4023 19.301 18.219 29.961 33.457l9.1797-6.418c-10.383-14.848-19.262-27.676-33.137-36.492-14.02-8.9102-32.484-13.371-61.469-13.566zm63.582-34.387c-8.1172 5.9766-13.887 10.199-22.637 13.762-8.8359 3.5977-20.973 6.6055-41.68 9.4766l1.5391 11.094c21.051-2.918 34.254-6.082 44.363-10.195 10.195-4.1523 16.98-9.1719 25.059-15.121zm-0.039063 0.027344 6.7227 8.9609zm15.996-11.262c-6.4609 4.2383-11.531 7.9766-15.953 11.23l6.6406 9.0195c4.418-3.2539 9.2734-6.8281 15.457-10.887zm-98.391 38.367c22.777-22.27 41.527-35.297 57.379-39.926 7.8047-2.2773 14.801-2.4844 21.25-0.84375 6.4648 1.6445 12.754 5.2461 18.98 11.148l7.707-8.1289c-7.3281-6.9453-15.258-11.668-23.926-13.875-8.6797-2.207-17.734-1.8008-27.152 0.94922-18.594 5.4297-38.977 20.094-62.066 42.668zm36.363-82.801c-20.941 30.117-31.199 46.957-45.324 76.371l10.094 4.8516c13.809-28.75 23.734-45.07 44.426-74.832zm-54.625 81.742c-8.8477-19.461-4.043-37.609 7.9336-51.09 12.145-13.672 31.578-22.344 51.152-21.859l0.27734-11.195c-22.844-0.57031-45.453 9.457-59.805 25.617-14.52 16.344-20.668 39.156-9.7578 63.16zm-58.195 60.156c-0.64062-16.641 3.3438-27.91 11.48-35.824 8.3633-8.1289 21.965-13.566 42.402-16.473l-1.5742-11.086c-21.328 3.0312-37.754 8.9531-48.637 19.527-11.105 10.801-15.586 25.586-14.863 44.285zm0.10938-8.4922c-2.4766 1.0977-5.1523 2.2891-8.0508 3.6211l4.6875 10.172c2.8164-1.2969 5.4258-2.457 7.9062-3.5586zm0 0h-0.003906l4.5508 10.234h0.003906zm-0.039063 0.015624h-0.003906l4.6328 10.199 0.003906-0.003906zm35.883-28.055c-6.3086 9.0586-11.402 14.242-16.633 18.012-5.3359 3.8438-11.051 6.4023-19.207 10.023l4.5469 10.238c7.9492-3.5312 14.762-6.5352 21.203-11.176 6.543-4.7109 12.48-10.93 19.281-20.699zm-8.7617 101.74c-7.1172-15.023-9.2812-27.344-6.6172-41.352 2.7305-14.371 10.621-30.961 24.762-54.285l-9.5781-5.8086c-14.23 23.473-23.055 41.52-26.188 58-3.2031 16.848-0.38672 31.598 7.5 48.242zm19.477-87.367c-1.4727 19.73-3.9766 34-8.4336 46.941-4.457 12.941-10.965 24.84-20.781 39.746l9.3555 6.1602c10.062-15.281 17.125-28.066 22.016-42.258 4.8867-14.188 7.5039-29.5 9.0117-49.754zm53.16 95.801c-15.754-13.324-25.551-24.934-31.789-39.047-6.2812-14.219-9.1758-31.488-10.191-56.562l-11.191 0.45312c1.0352 25.566 4.0117 44.5 11.141 60.633 7.1719 16.238 18.328 29.141 34.801 43.074zm-29.125-97.562c8.375 19.898 13.371 33.988 16.281 48.68 2.9141 14.695 3.793 30.25 3.6289 53.117l11.199 0.082031c0.16406-23.137-0.71094-39.574-3.8438-55.379-3.1328-15.809-8.4727-30.719-16.941-50.844z"/>
 </g>
</svg>
